# xmcd
#
# Track frame offsets:
#	150
#	14980
#	26573
#	38233
#	55795
#	68545
#	79748
#	93410
#	101698
#	116558
#	131468
#	146685
#	162578
#
# Disc length: 2365 seconds
#
# Revision: 0
# Processed by: cddbd v1.5.1PL0 Copyright (c) Steve Scherf et al.
# Submitted via: dBpowerAMP V4.0
#
DISCID=b0093b0d
DTITLE=windfall - out of limits
DYEAR=1992
DGENRE=Country
TTITLE0=california  (john rotscheid)
TTITLE1=riding shotgun (b swaan/d soekana)
TTITLE2=oldwater creek (d soekana)
TTITLE3=she's so clear (d soekana)
TTITLE4=steppin'on a saturday night (b swaan)
TTITLE5=i believe in you (d soekana)
TTITLE6=tell it like it is (b swaan)
TTITLE7=steppin's steel (h brekelmans)
TTITLE8=heartaches by the number and another bridge (b swaan)
TTITLE9=i belong to you (b swaan)
TTITLE10=frontporch (b swaan)
TTITLE11=don't i have the right (b swaan)
TTITLE12=i thought that we would love forever (john rotscheid)
EXTD=
EXTT0=
EXTT1=
EXTT2=
EXTT3=
EXTT4=
EXTT5=
EXTT6=
EXTT7=
EXTT8=
EXTT9=
EXTT10=
EXTT11=
EXTT12=
PLAYORDER=
